<?xml version="1.0" standalone="no"?><!DOCTYPE svg PUBLIC "-//W3C//DTD SVG 1.1//EN" "http://www.w3.org/Graphics/SVG/1.1/DTD/svg11.dtd"><svg t="1559896077639" class="icon" style="" viewBox="0 0 1024 1024" version="1.1" xmlns="http://www.w3.org/2000/svg" p-id="2914" xmlns:xlink="http://www.w3.org/1999/xlink" width="110" height="110"><defs><style type="text/css"></style></defs><path d="M151.272727 397.963636H69.818182c-25.6 0-46.545455 20.945455-46.545455 46.545455V977.454545c0 25.6 20.945455 46.545455 46.545455 46.545455h81.454545c25.6 0 34.909091-20.945455 34.909091-46.545455V442.181818c0-25.6-9.309091-44.218182-34.909091-44.218182zM907.636364 418.909091H605.090909c95.418182-90.763636 165.236364-418.909091-20.945454-418.909091-141.963636 0-114.036364 134.981818-158.254546 221.090909-39.563636 76.8-102.4 125.672727-144.290909 151.272727-27.927273 16.290909-46.545455 34.909091-46.545455 67.490909v488.727273c0 51.2 44.218182 93.090909 95.418182 93.090909h481.745455c44.218182 0 81.454545-39.563636 90.763636-81.454545 32.581818-141.963636 67.490909-293.236364 100.072727-430.545455 11.636364-53.527273-34.909091-90.763636-95.418181-90.763636z" fill="#03A9F4" p-id="2915"></path></svg>